<?xml version="1.0" encoding="utf-8"?>
<!DOCTYPE svg PUBLIC "-//W3C//DTD SVG 1.1//EN" "http://www.w3.org/Graphics/SVG/1.1/DTD/svg11.dtd">
<svg viewBox="0 0 512 512" xmlns="http://www.w3.org/2000/svg">
  <path fill="rgb(102, 102, 102)" d="M 406,216L 296,216 L 296,106 c0-5.52-4.47-10-10-10l-60,0 c-5.53,0-10,4.48-10,10l0,110 L 106,216 c-5.53,0-10,4.48-10,10l0,60 c0,5.53, 4.47,10, 10,10l 110,0 l0,110 c0,5.53, 4.47,10, 10,10l 60,0 c 5.53,0, 10-4.47, 10-10L 296,296 l 110,0 c 5.53,0, 10-4.47, 10-10l0-60 C 416,220.48, 411.53,216, 406,216z"/>
</svg>